{
	"asset":{
		"generator":"Khronos glTF Blender I/O v3.5.30",
		"version":"2.0"
	},
	"extensionsUsed":[
		"KHR_materials_specular",
		"KHR_materials_ior"
	],
	"scene":0,
	"scenes":[
		{
			"name":"Scene",
			"nodes":[
				0,
				1,
				2
			]
		}
	],
	"nodes":[
		{
			"mesh":0,
			"name":"Parc_Jeux_Animaux",
			"rotation":[
				0.7071068286895752,
				0,
				0,
				0.7071068286895752
			]
		},
		{
			"mesh":1,
			"name":"Dog_Pet",
			"rotation":[
				0.7071068286895752,
				0,
				0,
				0.7071068286895752
			],
			"scale":[
				0.5,
				0.5,
				0.5
			],
			"translation":[
				0.7916463613510132,
				-0.025864124298095703,
				3.295098066329956
			]
		},
		{
			"mesh":2,
			"name":"Cat_Pet",
			"rotation":[
				0.7071068286895752,
				0,
				0,
				0.7071068286895752
			],
			"scale":[
				0.4556216299533844,
				0.7054283022880554,
				0.4471020996570587
			],
			"translation":[
				-0.9313663244247437,
				0.029635116457939148,
				3.2244913578033447
			]
		}
	],
	"materials":[
		{
			"doubleSided":true,
			"extensions":{
				"KHR_materials_specular":{
					"specularColorFactor":[
						0,
						0,
						0
					]
				},
				"KHR_materials_ior":{
					"ior":1.4500000476837158
				}
			},
			"name":"Atlas.017",
			"pbrMetallicRoughness":{
				"baseColorTexture":{
					"index":0
				},
				"metallicFactor":0,
				"roughnessFactor":0
			}
		},
		{
			"doubleSided":true,
			"extensions":{
				"KHR_materials_specular":{
					"specularColorFactor":[
						0,
						0,
						0
					]
				},
				"KHR_materials_ior":{
					"ior":1.4500000476837158
				}
			},
			"name":"Atlas.018",
			"pbrMetallicRoughness":{
				"baseColorTexture":{
					"index":1
				},
				"metallicFactor":0,
				"roughnessFactor":0
			}
		},
		{
			"doubleSided":true,
			"extensions":{
				"KHR_materials_specular":{
					"specularColorFactor":[
						0,
						0,
						0
					]
				},
				"KHR_materials_ior":{
					"ior":1.4500000476837158
				}
			},
			"name":"Atlas.019",
			"pbrMetallicRoughness":{
				"baseColorTexture":{
					"index":2
				},
				"metallicFactor":0,
				"roughnessFactor":0
			}
		}
	],
	"meshes":[
		{
			"name":"Parc_Jeux_Animaux",
			"primitives":[
				{
					"attributes":{
						"POSITION":0,
						"TEXCOORD_0":1,
						"NORMAL":2
					},
					"indices":3,
					"material":0
				}
			]
		},
		{
			"name":"Dog_Pet.001",
			"primitives":[
				{
					"attributes":{
						"POSITION":4,
						"TEXCOORD_0":5,
						"NORMAL":6
					},
					"indices":7,
					"material":1
				}
			]
		},
		{
			"name":"Cat_Pet.001",
			"primitives":[
				{
					"attributes":{
						"POSITION":8,
						"TEXCOORD_0":9,
						"NORMAL":10
					},
					"indices":11,
					"material":2
				}
			]
		}
	],
	"textures":[
		{
			"sampler":0,
			"source":0
		},
		{
			"sampler":0,
			"source":0
		},
		{
			"sampler":0,
			"source":1
		}
	],
	"images":[
		{
			"bufferView":4,
			"mimeType":"image/png",
			"name":"Atlas_Decoration"
		},
		{
			"bufferView":13,
			"mimeType":"image/png",
			"name":"Atlas_Character"
		}
	],
	"accessors":[
		{
			"bufferView":0,
			"componentType":5126,
			"count":1439,
			"max":[
				2.711432933807373,
				2.829176902770996,
				-0.02090900018811226
			],
			"min":[
				-2.241703987121582,
				-2.233290910720825,
				-1.420740008354187
			],
			"type":"VEC3"
		},
		{
			"bufferView":1,
			"componentType":5126,
			"count":1439,
			"type":"VEC2"
		},
		{
			"bufferView":2,
			"componentType":5126,
			"count":1439,
			"type":"VEC3"
		},
		{
			"bufferView":3,
			"componentType":5123,
			"count":3276,
			"type":"SCALAR"
		},
		{
			"bufferView":5,
			"componentType":5126,
			"count":1698,
			"max":[
				0.41791701316833496,
				0.2936829924583435,
				0.023447999730706215
			],
			"min":[
				-0.33585500717163086,
				-1.2124899625778198,
				-1.7442530393600464
			],
			"type":"VEC3"
		},
		{
			"bufferView":6,
			"componentType":5126,
			"count":1698,
			"type":"VEC2"
		},
		{
			"bufferView":7,
			"componentType":5126,
			"count":1698,
			"type":"VEC3"
		},
		{
			"bufferView":8,
			"componentType":5123,
			"count":8832,
			"type":"SCALAR"
		},
		{
			"bufferView":9,
			"componentType":5126,
			"count":2477,
			"max":[
				0.3554230034351349,
				0.7738490104675293,
				0.020952999591827393
			],
			"min":[
				-0.37935999035835266,
				-1.2630070447921753,
				-1.4259690046310425
			],
			"type":"VEC3"
		},
		{
			"bufferView":10,
			"componentType":5126,
			"count":2477,
			"type":"VEC2"
		},
		{
			"bufferView":11,
			"componentType":5126,
			"count":2477,
			"type":"VEC3"
		},
		{
			"bufferView":12,
			"componentType":5123,
			"count":12126,
			"type":"SCALAR"
		}
	],
	"bufferViews":[
		{
			"buffer":0,
			"byteLength":17268,
			"byteOffset":0,
			"target":34962
		},
		{
			"buffer":0,
			"byteLength":11512,
			"byteOffset":17268,
			"target":34962
		},
		{
			"buffer":0,
			"byteLength":17268,
			"byteOffset":28780,
			"target":34962
		},
		{
			"buffer":0,
			"byteLength":6552,
			"byteOffset":46048,
			"target":34963
		},
		{
			"buffer":0,
			"byteLength":8757,
			"byteOffset":52600
		},
		{
			"buffer":0,
			"byteLength":20376,
			"byteOffset":61360,
			"target":34962
		},
		{
			"buffer":0,
			"byteLength":13584,
			"byteOffset":81736,
			"target":34962
		},
		{
			"buffer":0,
			"byteLength":20376,
			"byteOffset":95320,
			"target":34962
		},
		{
			"buffer":0,
			"byteLength":17664,
			"byteOffset":115696,
			"target":34963
		},
		{
			"buffer":0,
			"byteLength":29724,
			"byteOffset":133360,
			"target":34962
		},
		{
			"buffer":0,
			"byteLength":19816,
			"byteOffset":163084,
			"target":34962
		},
		{
			"buffer":0,
			"byteLength":29724,
			"byteOffset":182900,
			"target":34962
		},
		{
			"buffer":0,
			"byteLength":24252,
			"byteOffset":212624,
			"target":34963
		},
		{
			"buffer":0,
			"byteLength":55024,
			"byteOffset":236876
		}
	],
	"samplers":[
		{
			"magFilter":9729,
			"minFilter":9987
		}
	],
	"buffers":[
		{
			"byteLength":291900,
			"uri":"data:application/octet-stream;base64,"
		}
	]
}
