{
	"asset":{
		"generator":"Khronos glTF Blender I/O v3.5.30",
		"version":"2.0"
	},
	"extensionsUsed":[
		"KHR_materials_specular",
		"KHR_materials_ior"
	],
	"scene":0,
	"scenes":[
		{
			"name":"Scene",
			"nodes":[
				0
			]
		}
	],
	"nodes":[
		{
			"mesh":0,
			"name":"Edward",
			"rotation":[
				0.7071068286895752,
				0,
				0,
				0.7071068286895752
			]
		}
	],
	"materials":[
		{
			"doubleSided":true,
			"extensions":{
				"KHR_materials_specular":{
					"specularColorFactor":[
						0,
						0,
						0
					]
				},
				"KHR_materials_ior":{
					"ior":1.4500000476837158
				}
			},
			"name":"Atlas.007",
			"pbrMetallicRoughness":{
				"baseColorTexture":{
					"index":0
				},
				"metallicFactor":0,
				"roughnessFactor":0
			}
		}
	],
	"meshes":[
		{
			"name":"Edward.001",
			"primitives":[
				{
					"attributes":{
						"POSITION":0,
						"TEXCOORD_0":1,
						"NORMAL":2
					},
					"indices":3,
					"material":0
				}
			]
		}
	],
	"textures":[
		{
			"sampler":0,
			"source":0
		}
	],
	"images":[
		{
			"bufferView":4,
			"mimeType":"image/png",
			"name":"Atlas_Decoration"
		}
	],
	"accessors":[
		{
			"bufferView":0,
			"componentType":5126,
			"count":5310,
			"max":[
				0.16025599837303162,
				0.16491000354290009,
				0.0042039998807013035
			],
			"min":[
				-0.3419109880924225,
				-0.43118101358413696,
				-1.3398619890213013
			],
			"type":"VEC3"
		},
		{
			"bufferView":1,
			"componentType":5126,
			"count":5310,
			"type":"VEC2"
		},
		{
			"bufferView":2,
			"componentType":5126,
			"count":5310,
			"type":"VEC3"
		},
		{
			"bufferView":3,
			"componentType":5123,
			"count":27024,
			"type":"SCALAR"
		}
	],
	"bufferViews":[
		{
			"buffer":0,
			"byteLength":63720,
			"byteOffset":0,
			"target":34962
		},
		{
			"buffer":0,
			"byteLength":42480,
			"byteOffset":63720,
			"target":34962
		},
		{
			"buffer":0,
			"byteLength":63720,
			"byteOffset":106200,
			"target":34962
		},
		{
			"buffer":0,
			"byteLength":54048,
			"byteOffset":169920,
			"target":34963
		},
		{
			"buffer":0,
			"byteLength":8757,
			"byteOffset":223968
		}
	],
	"samplers":[
		{
			"magFilter":9729,
			"minFilter":9987
		}
	],
	"buffers":[
		{
			"byteLength":232728,
			"uri":"data:application/octet-stream;base64,"
		}
	]
}
