{
	"asset":{
		"generator":"Khronos glTF Blender I/O v3.5.30",
		"version":"2.0"
	},
	"extensionsUsed":[
		"KHR_materials_specular",
		"KHR_materials_ior"
	],
	"scene":0,
	"scenes":[
		{
			"name":"Scene",
			"nodes":[
				0
			]
		}
	],
	"nodes":[
		{
			"mesh":0,
			"name":"Maison_Champetre",
			"rotation":[
				0.7071068286895752,
				0,
				0,
				0.7071068286895752
			]
		}
	],
	"materials":[
		{
			"doubleSided":true,
			"extensions":{
				"KHR_materials_specular":{
					"specularColorFactor":[
						0,
						0,
						0
					]
				},
				"KHR_materials_ior":{
					"ior":1.4500000476837158
				}
			},
			"name":"Atlas.024",
			"pbrMetallicRoughness":{
				"baseColorTexture":{
					"index":0
				},
				"metallicFactor":0,
				"roughnessFactor":0
			}
		}
	],
	"meshes":[
		{
			"name":"Maison_Champetre.001",
			"primitives":[
				{
					"attributes":{
						"POSITION":0,
						"TEXCOORD_0":1,
						"NORMAL":2
					},
					"indices":3,
					"material":0
				}
			]
		}
	],
	"textures":[
		{
			"sampler":0,
			"source":0
		}
	],
	"images":[
		{
			"bufferView":4,
			"mimeType":"image/png",
			"name":"Atlas_Decoration"
		}
	],
	"accessors":[
		{
			"bufferView":0,
			"componentType":5126,
			"count":2264,
			"max":[
				1.534767985343933,
				1.9288630485534668,
				0
			],
			"min":[
				-1.655951976776123,
				-2.886152982711792,
				-4.292177200317383
			],
			"type":"VEC3"
		},
		{
			"bufferView":1,
			"componentType":5126,
			"count":2264,
			"type":"VEC2"
		},
		{
			"bufferView":2,
			"componentType":5126,
			"count":2264,
			"type":"VEC3"
		},
		{
			"bufferView":3,
			"componentType":5123,
			"count":4317,
			"type":"SCALAR"
		}
	],
	"bufferViews":[
		{
			"buffer":0,
			"byteLength":27168,
			"byteOffset":0,
			"target":34962
		},
		{
			"buffer":0,
			"byteLength":18112,
			"byteOffset":27168,
			"target":34962
		},
		{
			"buffer":0,
			"byteLength":27168,
			"byteOffset":45280,
			"target":34962
		},
		{
			"buffer":0,
			"byteLength":8634,
			"byteOffset":72448,
			"target":34963
		},
		{
			"buffer":0,
			"byteLength":8757,
			"byteOffset":81084
		}
	],
	"samplers":[
		{
			"magFilter":9729,
			"minFilter":9987
		}
	],
	"buffers":[
		{
			"byteLength":89844,
			"uri":"data:application/octet-stream;base64,"
		}
	]
}
